<svg viewBox="0 0 1320 980" xmlns="http://www.w3.org/2000/svg" font-family="ui-sans-serif, system-ui, sans-serif">
<title>connection (HTTP) — class diagram</title>
<desc>Il package connection e' l'adapter HTTP: implementa TransportInterface e ConnectionInterface del core e ne consuma le altre porte. Box tratteggiato = classe di confine (core).</desc>
<defs>
<marker id="tri" markerWidth="14" markerHeight="12" refX="12" refY="6" orient="auto" markerUnits="userSpaceOnUse"><path d="M1,1 L12,6 L1,11 Z" fill="#ffffff" stroke="#444441" stroke-width="1.2"/></marker>
<marker id="vee" markerWidth="12" markerHeight="12" refX="9" refY="5" orient="auto" markerUnits="userSpaceOnUse"><path d="M1,1 L10,5 L1,9" fill="none" stroke="#5F5E5A" stroke-width="1.4"/></marker>
</defs>
<rect x="0" y="0" width="1320" height="980" fill="#ffffff"/>
<text x="40" y="24" font-size="13" font-weight="700" fill="#2C2C2A">connection · HTTP channel — class diagram</text>
<text x="40" y="42" font-size="11" fill="#5F5E5A">Adapter HTTP (Ports &amp; Adapters): implementa <tspan font-style="italic">TransportInterface</tspan> + <tspan font-style="italic">ConnectionInterface</tspan> del core e ne consuma le altre porte. Il core NON dipende da qui.</text>

<!-- zone labels -->
<text x="42" y="60" font-size="10.5" font-weight="700" fill="#A6A49C">CONFINE · core (porte &amp; runtime)</text>
<text x="424" y="60" font-size="10.5" font-weight="700" fill="#A6A49C">connection · http</text>
<text x="804" y="60" font-size="10.5" font-weight="700" fill="#A6A49C">DTO http (pydantic)</text>

<!-- ===== implements arrows (tri) ===== -->
<line x1="422" y1="118" x2="342" y2="103" stroke="#444441" stroke-width="1.4" stroke-dasharray="6 4" marker-end="url(#tri)"/>
<line x1="422" y1="592" x2="342" y2="195" stroke="#444441" stroke-width="1.4" stroke-dasharray="6 4" marker-end="url(#tri)"/>
<!-- ===== uses arrows (vee) ===== -->
<line x1="588" y1="170" x2="588" y2="194" stroke="#5F5E5A" stroke-width="1.3" stroke-dasharray="2 4" marker-end="url(#vee)"/>
<text x="594" y="186" font-size="10" font-style="italic" fill="#5F5E5A">create_app</text>
<line x1="588" y1="298" x2="588" y2="322" stroke="#5F5E5A" stroke-width="1.3" stroke-dasharray="2 4" marker-end="url(#vee)"/>
<text x="594" y="314" font-size="10" font-style="italic" fill="#5F5E5A">monta router</text>
<line x1="500" y1="290" x2="344" y2="290" stroke="#5F5E5A" stroke-width="1.3" stroke-dasharray="2 4" marker-end="url(#vee)"/>
<text x="352" y="284" font-size="10" font-style="italic" fill="#5F5E5A">app.state.graphs = provider</text>
<line x1="420" y1="360" x2="344" y2="392" stroke="#5F5E5A" stroke-width="1.3" stroke-dasharray="2 4" marker-end="url(#vee)"/>
<text x="350" y="372" font-size="10" font-style="italic" fill="#5F5E5A">get_runtime</text>
<line x1="420" y1="420" x2="344" y2="500" stroke="#5F5E5A" stroke-width="1.3" stroke-dasharray="2 4" marker-end="url(#vee)"/>
<text x="350" y="452" font-size="10" font-style="italic" fill="#5F5E5A">crea GraphExecutor</text>
<line x1="420" y1="460" x2="344" y2="612" stroke="#5F5E5A" stroke-width="1.3" stroke-dasharray="2 4" marker-end="url(#vee)"/>
<text x="350" y="560" font-size="10" font-style="italic" fill="#5F5E5A">state routes</text>
<line x1="420" y1="498" x2="344" y2="720" stroke="#5F5E5A" stroke-width="1.3" stroke-dasharray="2 4" marker-end="url(#vee)"/>
<text x="350" y="690" font-size="10" font-style="italic" fill="#5F5E5A">→ 404</text>
<line x1="588" y1="520" x2="588" y2="544" stroke="#5F5E5A" stroke-width="1.3" stroke-dasharray="2 4" marker-end="url(#vee)"/>
<text x="594" y="536" font-size="10" font-style="italic" fill="#5F5E5A">crea HttpConnection</text>
<line x1="750" y1="420" x2="800" y2="420" stroke="#5F5E5A" stroke-width="1.3" stroke-dasharray="2 4" marker-end="url(#vee)"/>
<text x="752" y="412" font-size="10" font-style="italic" fill="#5F5E5A">restituisce DTO</text>
<line x1="588" y1="740" x2="588" y2="700" stroke="#5F5E5A" stroke-width="1.3" stroke-dasharray="2 4" marker-end="url(#vee)"/>
<text x="594" y="726" font-size="10" font-style="italic" fill="#5F5E5A">api_token</text>

<!-- ===================== LEFT: core boundary ===================== -->
<rect x="40" y="64" width="302" height="74" rx="6" fill="#F1EFE8" stroke="#5F5E5A" stroke-width="1.5" stroke-dasharray="5 4"/>
<text x="191" y="80" text-anchor="middle" font-size="10.5" font-style="italic" fill="#5F5E5A">«interface»</text>
<text x="191" y="98" text-anchor="middle" font-size="13" font-weight="700" fill="#2C2C2A">TransportInterface</text>
<text x="191" y="113" text-anchor="middle" font-size="10" fill="#888780">core.interface</text>
<line x1="48" y1="120" x2="334" y2="120" stroke="#5F5E5A" stroke-width="1"/>
<text x="52" y="134" font-size="11" fill="#2C2C2A">+ serve(provider)</text>

<rect x="40" y="156" width="302" height="74" rx="6" fill="#F1EFE8" stroke="#5F5E5A" stroke-width="1.5" stroke-dasharray="5 4"/>
<text x="191" y="172" text-anchor="middle" font-size="10.5" font-style="italic" fill="#5F5E5A">«interface»</text>
<text x="191" y="190" text-anchor="middle" font-size="13" font-weight="700" fill="#2C2C2A">ConnectionInterface</text>
<text x="191" y="205" text-anchor="middle" font-size="10" fill="#888780">core.interface</text>
<line x1="48" y1="212" x2="334" y2="212" stroke="#5F5E5A" stroke-width="1"/>
<text x="52" y="226" font-size="11" fill="#2C2C2A">+ send(payload)</text>

<rect x="40" y="248" width="302" height="92" rx="6" fill="#F1EFE8" stroke="#5F5E5A" stroke-width="1.5" stroke-dasharray="5 4"/>
<text x="191" y="264" text-anchor="middle" font-size="10.5" font-style="italic" fill="#5F5E5A">«interface»</text>
<text x="191" y="282" text-anchor="middle" font-size="13" font-weight="700" fill="#2C2C2A">GraphProviderInterface</text>
<text x="191" y="297" text-anchor="middle" font-size="10" fill="#888780">core.interface</text>
<line x1="48" y1="305" x2="334" y2="305" stroke="#5F5E5A" stroke-width="1"/>
<text x="52" y="323" font-size="11" fill="#2C2C2A">+ get(name) · names()</text>
<text x="52" y="336" font-size="11" fill="#2C2C2A">+ failure(name)</text>

<rect x="40" y="358" width="302" height="100" rx="6" fill="#F1EFE8" stroke="#5F5E5A" stroke-width="1.5" stroke-dasharray="5 4"/>
<text x="191" y="374" text-anchor="middle" font-size="10.5" font-style="italic" fill="#5F5E5A">«interface»</text>
<text x="191" y="392" text-anchor="middle" font-size="13" font-weight="700" fill="#2C2C2A">GraphRuntimeInterface</text>
<text x="191" y="407" text-anchor="middle" font-size="10" fill="#888780">core.interface</text>
<line x1="48" y1="415" x2="334" y2="415" stroke="#5F5E5A" stroke-width="1"/>
<text x="52" y="433" font-size="11" fill="#2C2C2A">+ ainvoke(input, thread_id)</text>
<text x="52" y="451" font-size="11" fill="#2C2C2A">+ get_state · history(thread_id)</text>

<rect x="40" y="476" width="302" height="92" rx="6" fill="#EEEDFE" stroke="#534AB7" stroke-width="1.5" stroke-dasharray="5 4"/>
<text x="191" y="492" text-anchor="middle" font-size="10.5" font-style="italic" fill="#534AB7">«class»</text>
<text x="191" y="510" text-anchor="middle" font-size="13" font-weight="700" fill="#26215C">GraphExecutor</text>
<text x="191" y="525" text-anchor="middle" font-size="10" fill="#7F77DD">core.runtime</text>
<line x1="48" y1="533" x2="334" y2="533" stroke="#534AB7" stroke-width="1"/>
<text x="52" y="551" font-size="11" fill="#26215C">+ run(input, thread_id)</text>
<text x="52" y="564" font-size="10.5" font-style="italic" fill="#7F77DD">usa runtime + channel</text>

<rect x="40" y="586" width="302" height="92" rx="6" fill="#F1EFE8" stroke="#5F5E5A" stroke-width="1.5" stroke-dasharray="5 4"/>
<text x="191" y="602" text-anchor="middle" font-size="10.5" font-style="italic" fill="#5F5E5A">«interface»</text>
<text x="191" y="620" text-anchor="middle" font-size="13" font-weight="700" fill="#2C2C2A">StateHistoryInterface</text>
<text x="191" y="635" text-anchor="middle" font-size="10" fill="#888780">core.interface</text>
<line x1="48" y1="643" x2="334" y2="643" stroke="#5F5E5A" stroke-width="1"/>
<text x="52" y="661" font-size="11" fill="#2C2C2A">+ previous · back · at</text>
<text x="52" y="674" font-size="11" fill="#2C2C2A">+ checkpoints(limit)</text>

<rect x="40" y="696" width="302" height="74" rx="6" fill="#FCEBEB" stroke="#A32D2D" stroke-width="1.5" stroke-dasharray="5 4"/>
<text x="191" y="712" text-anchor="middle" font-size="10.5" font-style="italic" fill="#A32D2D">«error»</text>
<text x="191" y="730" text-anchor="middle" font-size="13" font-weight="700" fill="#501313">CheckpointNotFoundError</text>
<text x="191" y="745" text-anchor="middle" font-size="10" fill="#E24B4A">core.state</text>
<line x1="48" y1="752" x2="334" y2="752" stroke="#A32D2D" stroke-width="1"/>
<text x="52" y="766" font-size="11" fill="#501313">mappato a HTTP 404</text>

<!-- ===================== MIDDLE: connection ===================== -->
<rect x="422" y="64" width="330" height="104" rx="6" fill="#EEEDFE" stroke="#534AB7" stroke-width="1.5"/>
<text x="587" y="80" text-anchor="middle" font-size="10.5" font-style="italic" fill="#534AB7">«class»</text>
<text x="587" y="98" text-anchor="middle" font-size="13" font-weight="700" fill="#26215C">HttpTransport</text>
<text x="587" y="113" text-anchor="middle" font-size="10" fill="#7F77DD">connection…channel_operativity</text>
<line x1="430" y1="121" x2="744" y2="121" stroke="#534AB7" stroke-width="1"/>
<text x="434" y="139" font-size="11" fill="#26215C">- _host  - _port  - _settings</text>
<text x="434" y="157" font-size="11" fill="#26215C">+ serve(provider)  → create_app</text>

<rect x="422" y="192" width="330" height="106" rx="6" fill="#F1EFE8" stroke="#5F5E5A" stroke-width="1.5"/>
<text x="587" y="208" text-anchor="middle" font-size="10.5" font-style="italic" fill="#5F5E5A">«factory-fn»</text>
<text x="587" y="226" text-anchor="middle" font-size="13" font-weight="700" fill="#2C2C2A">create_app</text>
<text x="587" y="241" text-anchor="middle" font-size="10" fill="#888780">connection…channel_instance</text>
<line x1="430" y1="249" x2="744" y2="249" stroke="#5F5E5A" stroke-width="1"/>
<text x="434" y="267" font-size="11" fill="#2C2C2A">build FastAPI(provider, settings)</text>
<text x="434" y="285" font-size="11" fill="#2C2C2A">monta health + graphs router</text>

<rect x="422" y="322" width="330" height="200" rx="6" fill="#FDEBD8" stroke="#9A5B0E" stroke-width="1.5"/>
<text x="587" y="338" text-anchor="middle" font-size="10.5" font-style="italic" fill="#9A5B0E">«router · FastAPI»</text>
<text x="587" y="356" text-anchor="middle" font-size="13" font-weight="700" fill="#5A360A">http_graphs_router</text>
<text x="587" y="371" text-anchor="middle" font-size="10" fill="#C07A1E">connection…routes</text>
<line x1="430" y1="379" x2="744" y2="379" stroke="#9A5B0E" stroke-width="1"/>
<text x="434" y="397" font-size="11" fill="#5A360A">GET  /graphs</text>
<text x="434" y="415" font-size="11" fill="#5A360A">POST /graphs/{n}/invoke</text>
<text x="434" y="433" font-size="11" fill="#5A360A">GET  …/threads/{t}/state</text>
<text x="434" y="451" font-size="11" fill="#5A360A">GET  …/state/previous</text>
<text x="434" y="469" font-size="11" fill="#5A360A">GET  …/state/history?limit=</text>
<text x="434" y="487" font-size="11" fill="#5A360A">GET  …/state/at/{checkpoint_id}</text>
<text x="434" y="510" font-size="10.5" font-style="italic" fill="#C07A1E">dep: verify_token (Bearer)</text>

<rect x="422" y="544" width="330" height="92" rx="6" fill="#EEEDFE" stroke="#534AB7" stroke-width="1.5"/>
<text x="587" y="560" text-anchor="middle" font-size="10.5" font-style="italic" fill="#534AB7">«class»</text>
<text x="587" y="578" text-anchor="middle" font-size="13" font-weight="700" fill="#26215C">HttpConnection</text>
<text x="587" y="593" text-anchor="middle" font-size="10" fill="#7F77DD">connection…channel_operativity</text>
<line x1="430" y1="601" x2="744" y2="601" stroke="#534AB7" stroke-width="1"/>
<text x="434" y="619" font-size="11" fill="#26215C">- _payload</text>
<text x="434" y="632" font-size="11" fill="#26215C">+ send(payload)  + payload (prop)</text>

<rect x="422" y="660" width="158" height="84" rx="6" fill="#E1F5EE" stroke="#0F6E56" stroke-width="1.5"/>
<text x="501" y="676" text-anchor="middle" font-size="10" font-style="italic" fill="#0F6E56">«DTO·pydantic»</text>
<text x="501" y="693" text-anchor="middle" font-size="12" font-weight="700" fill="#04342C">HttpSettings</text>
<line x1="430" y1="701" x2="572" y2="701" stroke="#0F6E56" stroke-width="1"/>
<text x="434" y="719" font-size="10.5" fill="#04342C">+ title</text>
<text x="434" y="735" font-size="10.5" fill="#04342C">+ api_token</text>

<rect x="594" y="660" width="158" height="84" rx="6" fill="#F1EFE8" stroke="#5F5E5A" stroke-width="1.5"/>
<text x="673" y="676" text-anchor="middle" font-size="10" font-style="italic" fill="#5F5E5A">«fn · dep»</text>
<text x="673" y="693" text-anchor="middle" font-size="12" font-weight="700" fill="#2C2C2A">verify_token</text>
<line x1="602" y1="701" x2="744" y2="701" stroke="#5F5E5A" stroke-width="1"/>
<text x="606" y="719" font-size="10.5" fill="#2C2C2A">Bearer match</text>
<text x="606" y="735" font-size="10.5" fill="#2C2C2A">→ 401</text>

<rect x="422" y="768" width="330" height="68" rx="6" fill="#FDEBD8" stroke="#9A5B0E" stroke-width="1.5"/>
<text x="587" y="784" text-anchor="middle" font-size="10" font-style="italic" fill="#9A5B0E">«router»</text>
<text x="587" y="801" text-anchor="middle" font-size="12.5" font-weight="700" fill="#5A360A">health.router</text>
<line x1="430" y1="809" x2="744" y2="809" stroke="#9A5B0E" stroke-width="1"/>
<text x="434" y="827" font-size="11" fill="#5A360A">GET /ok → HealthResponse</text>

<!-- ===================== RIGHT: DTO panel ===================== -->
<rect x="800" y="64" width="480" height="772" rx="8" fill="#F4FBF8" stroke="#0F6E56" stroke-width="1.2" stroke-dasharray="3 4"/>
<text x="1040" y="86" text-anchor="middle" font-size="11.5" font-weight="700" fill="#0F6E56">DTO http (pydantic) — request / response</text>

<rect x="818" y="100" width="216" height="150" rx="6" fill="#E1F5EE" stroke="#0F6E56" stroke-width="1.4"/>
<text x="926" y="118" text-anchor="middle" font-size="12.5" font-weight="700" fill="#04342C">InvokeRequest</text>
<line x1="826" y1="126" x2="1026" y2="126" stroke="#0F6E56" stroke-width="1"/>
<text x="830" y="146" font-size="11" fill="#04342C">+ thread_id : str</text>
<text x="830" y="166" font-size="11" fill="#04342C">+ input : dict = {}</text>
<text x="830" y="186" font-size="11" fill="#04342C">+ include_state : bool</text>

<rect x="1052" y="100" width="216" height="150" rx="6" fill="#E1F5EE" stroke="#0F6E56" stroke-width="1.4"/>
<text x="1160" y="118" text-anchor="middle" font-size="12.5" font-weight="700" fill="#04342C">InvokeResponse</text>
<line x1="1060" y1="126" x2="1260" y2="126" stroke="#0F6E56" stroke-width="1"/>
<text x="1064" y="146" font-size="11" fill="#04342C">+ graph · thread_id</text>
<text x="1064" y="166" font-size="11" fill="#04342C">+ reply : Any</text>
<text x="1064" y="186" font-size="11" fill="#04342C">+ state : dict | None</text>

<rect x="818" y="266" width="216" height="120" rx="6" fill="#E1F5EE" stroke="#0F6E56" stroke-width="1.4"/>
<text x="926" y="284" text-anchor="middle" font-size="12.5" font-weight="700" fill="#04342C">GraphList</text>
<line x1="826" y1="292" x2="1026" y2="292" stroke="#0F6E56" stroke-width="1"/>
<text x="830" y="312" font-size="11" fill="#04342C">+ graphs : list[str]</text>

<rect x="1052" y="266" width="216" height="120" rx="6" fill="#E1F5EE" stroke="#0F6E56" stroke-width="1.4"/>
<text x="1160" y="284" text-anchor="middle" font-size="12.5" font-weight="700" fill="#04342C">HealthResponse</text>
<line x1="1060" y1="292" x2="1260" y2="292" stroke="#0F6E56" stroke-width="1"/>
<text x="1064" y="312" font-size="11" fill="#04342C">+ ok : bool = True</text>

<rect x="818" y="402" width="216" height="150" rx="6" fill="#E1F5EE" stroke="#0F6E56" stroke-width="1.4"/>
<text x="926" y="420" text-anchor="middle" font-size="12.5" font-weight="700" fill="#04342C">ThreadStateResponse</text>
<line x1="826" y1="428" x2="1026" y2="428" stroke="#0F6E56" stroke-width="1"/>
<text x="830" y="448" font-size="11" fill="#04342C">+ graph · thread_id</text>
<text x="830" y="468" font-size="11" fill="#04342C">+ values : dict</text>
<text x="830" y="488" font-size="11" fill="#04342C">+ next : list[str]</text>

<rect x="1052" y="402" width="216" height="150" rx="6" fill="#E1F5EE" stroke="#0F6E56" stroke-width="1.4"/>
<text x="1160" y="420" text-anchor="middle" font-size="12" font-weight="700" fill="#04342C">HistoricalStateResponse</text>
<line x1="1060" y1="428" x2="1260" y2="428" stroke="#0F6E56" stroke-width="1"/>
<text x="1064" y="448" font-size="11" fill="#04342C">+ graph · thread_id</text>
<text x="1064" y="468" font-size="11" fill="#04342C">+ values : dict</text>
<text x="1064" y="488" font-size="11" fill="#04342C">+ checkpoint_id : str?</text>

<rect x="818" y="568" width="216" height="150" rx="6" fill="#E1F5EE" stroke="#0F6E56" stroke-width="1.4"/>
<text x="926" y="586" text-anchor="middle" font-size="12" font-weight="700" fill="#04342C">CheckpointListResponse</text>
<line x1="826" y1="594" x2="1026" y2="594" stroke="#0F6E56" stroke-width="1"/>
<text x="830" y="614" font-size="11" fill="#04342C">+ graph · thread_id</text>
<text x="830" y="634" font-size="11" fill="#04342C">+ checkpoints :</text>
<text x="830" y="652" font-size="11" fill="#04342C">   list[CheckpointResponse]</text>

<rect x="1052" y="568" width="216" height="150" rx="6" fill="#E1F5EE" stroke="#0F6E56" stroke-width="1.4"/>
<text x="1160" y="586" text-anchor="middle" font-size="12.5" font-weight="700" fill="#04342C">CheckpointResponse</text>
<line x1="1060" y1="594" x2="1260" y2="594" stroke="#0F6E56" stroke-width="1"/>
<text x="1064" y="614" font-size="11" fill="#04342C">+ checkpoint_id · node</text>
<text x="1064" y="634" font-size="11" fill="#04342C">+ step : int</text>
<text x="1064" y="654" font-size="11" fill="#04342C">+ created_at : str</text>
<line x1="926" y1="652" x2="1052" y2="640" stroke="#0F6E56" stroke-width="1.2" stroke-dasharray="2 3" marker-end="url(#vee)"/>

<!-- legend -->
<line x1="40" y1="900" x2="56" y2="900" stroke="#444441" stroke-width="1.4" stroke-dasharray="6 4" marker-end="url(#tri)"/>
<text x="64" y="904" font-size="10.5" fill="#5F5E5A">implementa</text>
<line x1="170" y1="900" x2="186" y2="900" stroke="#5F5E5A" stroke-width="1.3" stroke-dasharray="2 4" marker-end="url(#vee)"/>
<text x="194" y="904" font-size="10.5" fill="#5F5E5A">usa / crea / restituisce</text>
<rect x="350" y="893" width="22" height="13" rx="3" fill="#ffffff" stroke="#5F5E5A"/><text x="378" y="904" font-size="10.5" fill="#5F5E5A">del package</text>
<rect x="470" y="893" width="22" height="13" rx="3" fill="#ffffff" stroke="#5F5E5A" stroke-dasharray="4 3"/><text x="498" y="904" font-size="10.5" fill="#5F5E5A">confine (core)</text>
<text x="40" y="930" font-size="10.5" font-style="italic" fill="#888780">Flusso: POST /invoke → crea HttpConnection (channel) + GraphExecutor(runtime, channel) → executor.run() → reply dal payload → InvokeResponse.</text>
<text x="40" y="950" font-size="10.5" font-style="italic" fill="#888780">HttpTransport ⟹ TransportInterface · HttpConnection ⟹ ConnectionInterface. Il core resta agnostico rispetto a FastAPI.</text>
</svg>
