<svg viewBox="0 0 1500 1000" xmlns="http://www.w3.org/2000/svg" font-family="ui-sans-serif, system-ui, sans-serif">
<title>Framework — interfacce, astratte e implementazioni (realization / inheritance map)</title>
<desc>Tutte le porte (core.interface) con la loro implementazione concreta, e le gerarchie di classi astratte (extends). Freccia tratteggiata a triangolo vuoto = implements; freccia continua a triangolo vuoto = extends.</desc>
<defs>
<marker id="tri" markerWidth="14" markerHeight="12" refX="12" refY="6" orient="auto" markerUnits="userSpaceOnUse"><path d="M1,1 L12,6 L1,11 Z" fill="#ffffff" stroke="#444441" stroke-width="1.2"/></marker>
</defs>
<rect x="0" y="0" width="1500" height="1000" fill="#ffffff"/>
<text x="40" y="24" font-size="13" font-weight="700" fill="#2C2C2A">Framework · interfacce → implementazioni + gerarchie astratte — class diagram</text>
<text x="40" y="42" font-size="11" fill="#5F5E5A">Ogni <tspan font-weight="700">porta</tspan> (core.interface) con la sua realizzazione concreta. <tspan font-style="italic">- - ▷ tratteggiata = implements</tspan> · <tspan font-style="italic">——▷ continua = extends</tspan>. Colore = tipo; package sotto al nome.</text>

<!-- ============ BAND A: PORTS -> IMPL ============ -->
<text x="42" y="64" font-size="10.5" font-weight="700" fill="#A6A49C">PORTE → REALIZZAZIONE (ogni interfaccia con la sua implementazione)</text>

<!-- ===== COL 1 ===== -->
<!-- r1 -->
<rect x="40" y="80" width="210" height="64" rx="6" fill="#F1EFE8" stroke="#5F5E5A" stroke-width="1.4"/>
<text x="145" y="98" text-anchor="middle" font-size="10" font-style="italic" fill="#5F5E5A">«interface»</text>
<text x="145" y="116" text-anchor="middle" font-size="12" font-weight="700" fill="#2C2C2A">GraphLoaderInterface</text>
<text x="145" y="132" text-anchor="middle" font-size="9.5" fill="#888780">core.interface</text>
<rect x="290" y="80" width="210" height="64" rx="6" fill="#EEEDFE" stroke="#534AB7" stroke-width="1.4"/>
<text x="395" y="98" text-anchor="middle" font-size="10" font-style="italic" fill="#534AB7">«class»</text>
<text x="395" y="116" text-anchor="middle" font-size="12" font-weight="700" fill="#26215C">YamlGraphLoader</text>
<text x="395" y="132" text-anchor="middle" font-size="9.5" fill="#7F77DD">core.loader</text>
<line x1="290" y1="112" x2="252" y2="112" stroke="#444441" stroke-width="1.3" stroke-dasharray="6 4" marker-end="url(#tri)"/>

<!-- r2 -->
<rect x="40" y="172" width="210" height="64" rx="6" fill="#F1EFE8" stroke="#5F5E5A" stroke-width="1.4"/>
<text x="145" y="190" text-anchor="middle" font-size="10" font-style="italic" fill="#5F5E5A">«interface»</text>
<text x="145" y="208" text-anchor="middle" font-size="12" font-weight="700" fill="#2C2C2A">GraphBuilderInterface</text>
<text x="145" y="224" text-anchor="middle" font-size="9.5" fill="#888780">core.interface</text>
<rect x="290" y="172" width="210" height="64" rx="6" fill="#EEEDFE" stroke="#534AB7" stroke-width="1.4"/>
<text x="395" y="190" text-anchor="middle" font-size="10" font-style="italic" fill="#534AB7">«class»</text>
<text x="395" y="208" text-anchor="middle" font-size="12" font-weight="700" fill="#26215C">GraphBuilder</text>
<text x="395" y="224" text-anchor="middle" font-size="9.5" fill="#7F77DD">core.builder</text>
<line x1="290" y1="204" x2="252" y2="204" stroke="#444441" stroke-width="1.3" stroke-dasharray="6 4" marker-end="url(#tri)"/>

<!-- r3 -->
<rect x="40" y="264" width="210" height="64" rx="6" fill="#F1EFE8" stroke="#5F5E5A" stroke-width="1.4"/>
<text x="145" y="282" text-anchor="middle" font-size="10" font-style="italic" fill="#5F5E5A">«interface»</text>
<text x="145" y="299" text-anchor="middle" font-size="10.5" font-weight="700" fill="#2C2C2A">GraphProviderFactoryInterface</text>
<text x="145" y="316" text-anchor="middle" font-size="9.5" fill="#888780">core.interface</text>
<rect x="290" y="264" width="210" height="64" rx="6" fill="#EEEDFE" stroke="#534AB7" stroke-width="1.4"/>
<text x="395" y="282" text-anchor="middle" font-size="10" font-style="italic" fill="#534AB7">«class»</text>
<text x="395" y="299" text-anchor="middle" font-size="11" font-weight="700" fill="#26215C">YamlGraphProviderFactory</text>
<text x="395" y="316" text-anchor="middle" font-size="9.5" fill="#7F77DD">core.provider</text>
<line x1="290" y1="296" x2="252" y2="296" stroke="#444441" stroke-width="1.3" stroke-dasharray="6 4" marker-end="url(#tri)"/>

<!-- r4 -->
<rect x="40" y="356" width="210" height="64" rx="6" fill="#F1EFE8" stroke="#5F5E5A" stroke-width="1.4"/>
<text x="145" y="374" text-anchor="middle" font-size="10" font-style="italic" fill="#5F5E5A">«interface»</text>
<text x="145" y="392" text-anchor="middle" font-size="12" font-weight="700" fill="#2C2C2A">GraphProviderInterface</text>
<text x="145" y="408" text-anchor="middle" font-size="9.5" fill="#888780">core.interface</text>
<rect x="290" y="356" width="210" height="64" rx="6" fill="#EEEDFE" stroke="#534AB7" stroke-width="1.4"/>
<text x="395" y="374" text-anchor="middle" font-size="10" font-style="italic" fill="#534AB7">«class»</text>
<text x="395" y="392" text-anchor="middle" font-size="12" font-weight="700" fill="#26215C">YamlGraphProvider</text>
<text x="395" y="408" text-anchor="middle" font-size="9.5" fill="#7F77DD">core.provider</text>
<line x1="290" y1="388" x2="252" y2="388" stroke="#444441" stroke-width="1.3" stroke-dasharray="6 4" marker-end="url(#tri)"/>

<!-- r5 -->
<rect x="40" y="448" width="210" height="64" rx="6" fill="#F1EFE8" stroke="#5F5E5A" stroke-width="1.4"/>
<text x="145" y="466" text-anchor="middle" font-size="10" font-style="italic" fill="#5F5E5A">«interface»</text>
<text x="145" y="484" text-anchor="middle" font-size="12" font-weight="700" fill="#2C2C2A">RegistryInterface</text>
<text x="145" y="500" text-anchor="middle" font-size="9.5" fill="#888780">core.interface</text>
<rect x="290" y="448" width="210" height="64" rx="6" fill="#EEEDFE" stroke="#534AB7" stroke-width="1.4"/>
<text x="395" y="466" text-anchor="middle" font-size="10" font-style="italic" fill="#534AB7">«class»</text>
<text x="395" y="484" text-anchor="middle" font-size="12" font-weight="700" fill="#26215C">StaticRegistry</text>
<text x="395" y="500" text-anchor="middle" font-size="9.5" fill="#7F77DD">core.registry</text>
<line x1="290" y1="480" x2="252" y2="480" stroke="#444441" stroke-width="1.3" stroke-dasharray="6 4" marker-end="url(#tri)"/>

<!-- ===== COL 2 ===== -->
<!-- r1 -->
<rect x="530" y="80" width="210" height="64" rx="6" fill="#F1EFE8" stroke="#5F5E5A" stroke-width="1.4"/>
<text x="635" y="98" text-anchor="middle" font-size="10" font-style="italic" fill="#5F5E5A">«interface»</text>
<text x="635" y="116" text-anchor="middle" font-size="12" font-weight="700" fill="#2C2C2A">GraphRuntimeInterface</text>
<text x="635" y="132" text-anchor="middle" font-size="9.5" fill="#888780">core.interface</text>
<rect x="780" y="80" width="210" height="64" rx="6" fill="#EEEDFE" stroke="#534AB7" stroke-width="1.4"/>
<text x="885" y="98" text-anchor="middle" font-size="10" font-style="italic" fill="#534AB7">«class»</text>
<text x="885" y="116" text-anchor="middle" font-size="12" font-weight="700" fill="#26215C">LangGraphRuntime</text>
<text x="885" y="132" text-anchor="middle" font-size="9.5" fill="#7F77DD">core.runtime</text>
<line x1="780" y1="112" x2="742" y2="112" stroke="#444441" stroke-width="1.3" stroke-dasharray="6 4" marker-end="url(#tri)"/>

<!-- r2 -->
<rect x="530" y="172" width="210" height="64" rx="6" fill="#F1EFE8" stroke="#5F5E5A" stroke-width="1.4"/>
<text x="635" y="190" text-anchor="middle" font-size="10" font-style="italic" fill="#5F5E5A">«interface»</text>
<text x="635" y="208" text-anchor="middle" font-size="12" font-weight="700" fill="#2C2C2A">StateHistoryInterface</text>
<text x="635" y="224" text-anchor="middle" font-size="9.5" fill="#888780">core.interface</text>
<rect x="780" y="172" width="210" height="64" rx="6" fill="#EEEDFE" stroke="#534AB7" stroke-width="1.4"/>
<text x="885" y="190" text-anchor="middle" font-size="10" font-style="italic" fill="#534AB7">«class»</text>
<text x="885" y="208" text-anchor="middle" font-size="11.5" font-weight="700" fill="#26215C">LangGraphStateHistory</text>
<text x="885" y="224" text-anchor="middle" font-size="9.5" fill="#7F77DD">core.runtime · AP-14</text>
<line x1="780" y1="204" x2="742" y2="204" stroke="#444441" stroke-width="1.3" stroke-dasharray="6 4" marker-end="url(#tri)"/>

<!-- r3 -->
<rect x="530" y="264" width="210" height="64" rx="6" fill="#F1EFE8" stroke="#5F5E5A" stroke-width="1.4"/>
<text x="635" y="282" text-anchor="middle" font-size="10" font-style="italic" fill="#5F5E5A">«interface»</text>
<text x="635" y="300" text-anchor="middle" font-size="12" font-weight="700" fill="#2C2C2A">StateInterface</text>
<text x="635" y="316" text-anchor="middle" font-size="9.5" fill="#888780">core.interface</text>
<rect x="780" y="264" width="210" height="64" rx="6" fill="#EEEDFE" stroke="#534AB7" stroke-width="1.4"/>
<text x="885" y="282" text-anchor="middle" font-size="10" font-style="italic" fill="#534AB7">«class»</text>
<text x="885" y="300" text-anchor="middle" font-size="12" font-weight="700" fill="#26215C">State</text>
<text x="885" y="316" text-anchor="middle" font-size="9.5" fill="#7F77DD">core.state</text>
<line x1="780" y1="296" x2="742" y2="296" stroke="#444441" stroke-width="1.3" stroke-dasharray="6 4" marker-end="url(#tri)"/>

<!-- r4 -->
<rect x="530" y="356" width="210" height="64" rx="6" fill="#F1EFE8" stroke="#5F5E5A" stroke-width="1.4"/>
<text x="635" y="374" text-anchor="middle" font-size="10" font-style="italic" fill="#5F5E5A">«interface»</text>
<text x="635" y="392" text-anchor="middle" font-size="12" font-weight="700" fill="#2C2C2A">ThreadStateInterface</text>
<text x="635" y="408" text-anchor="middle" font-size="9.5" fill="#888780">core.interface</text>
<rect x="780" y="356" width="210" height="64" rx="6" fill="#F4F4F2" stroke="#B8B6AE" stroke-width="1.4" stroke-dasharray="5 4"/>
<text x="885" y="382" text-anchor="middle" font-size="10.5" font-style="italic" fill="#8C8A82">adapter snapshot</text>
<text x="885" y="400" text-anchor="middle" font-size="10" fill="#A6A49C">interno a LangGraphRuntime.get_state()</text>
<line x1="780" y1="388" x2="742" y2="388" stroke="#444441" stroke-width="1.3" stroke-dasharray="6 4" marker-end="url(#tri)"/>

<!-- r5 -->
<rect x="530" y="448" width="210" height="64" rx="6" fill="#F1EFE8" stroke="#5F5E5A" stroke-width="1.4"/>
<text x="635" y="466" text-anchor="middle" font-size="10" font-style="italic" fill="#5F5E5A">«interface»</text>
<text x="635" y="484" text-anchor="middle" font-size="12" font-weight="700" fill="#2C2C2A">RouterInterface</text>
<text x="635" y="500" text-anchor="middle" font-size="9.5" fill="#888780">core.interface</text>
<rect x="780" y="448" width="210" height="64" rx="6" fill="#FAECE7" stroke="#993C1D" stroke-width="1.4"/>
<text x="885" y="466" text-anchor="middle" font-size="10" font-style="italic" fill="#993C1D">«user»</text>
<text x="885" y="484" text-anchor="middle" font-size="12" font-weight="700" fill="#4A1B0C">&lt;Mio&gt;Router</text>
<text x="885" y="500" text-anchor="middle" font-size="9.5" fill="#D85A30">&lt;project&gt;.routers</text>
<line x1="780" y1="480" x2="742" y2="480" stroke="#444441" stroke-width="1.3" stroke-dasharray="6 4" marker-end="url(#tri)"/>

<!-- ===== COL 3 ===== -->
<!-- r1 -->
<rect x="1020" y="80" width="210" height="64" rx="6" fill="#F1EFE8" stroke="#5F5E5A" stroke-width="1.4"/>
<text x="1125" y="98" text-anchor="middle" font-size="10" font-style="italic" fill="#5F5E5A">«interface»</text>
<text x="1125" y="116" text-anchor="middle" font-size="12" font-weight="700" fill="#2C2C2A">TransportInterface</text>
<text x="1125" y="132" text-anchor="middle" font-size="9.5" fill="#888780">core.interface</text>
<rect x="1270" y="80" width="210" height="64" rx="6" fill="#EEEDFE" stroke="#534AB7" stroke-width="1.4"/>
<text x="1375" y="98" text-anchor="middle" font-size="10" font-style="italic" fill="#534AB7">«class»</text>
<text x="1375" y="116" text-anchor="middle" font-size="12" font-weight="700" fill="#26215C">HttpTransport</text>
<text x="1375" y="132" text-anchor="middle" font-size="9.5" fill="#7F77DD">connection.http</text>
<line x1="1270" y1="112" x2="1232" y2="112" stroke="#444441" stroke-width="1.3" stroke-dasharray="6 4" marker-end="url(#tri)"/>

<!-- r2 -->
<rect x="1020" y="172" width="210" height="64" rx="6" fill="#F1EFE8" stroke="#5F5E5A" stroke-width="1.4"/>
<text x="1125" y="190" text-anchor="middle" font-size="10" font-style="italic" fill="#5F5E5A">«interface»</text>
<text x="1125" y="208" text-anchor="middle" font-size="12" font-weight="700" fill="#2C2C2A">ConnectionInterface</text>
<text x="1125" y="224" text-anchor="middle" font-size="9.5" fill="#888780">core.interface</text>
<rect x="1270" y="172" width="210" height="64" rx="6" fill="#EEEDFE" stroke="#534AB7" stroke-width="1.4"/>
<text x="1375" y="190" text-anchor="middle" font-size="10" font-style="italic" fill="#534AB7">«class»</text>
<text x="1375" y="208" text-anchor="middle" font-size="12" font-weight="700" fill="#26215C">HttpConnection</text>
<text x="1375" y="224" text-anchor="middle" font-size="9.5" fill="#7F77DD">connection.http</text>
<line x1="1270" y1="204" x2="1232" y2="204" stroke="#444441" stroke-width="1.3" stroke-dasharray="6 4" marker-end="url(#tri)"/>

<!-- r3 -->
<rect x="1020" y="264" width="210" height="64" rx="6" fill="#F1EFE8" stroke="#5F5E5A" stroke-width="1.4"/>
<text x="1125" y="282" text-anchor="middle" font-size="10" font-style="italic" fill="#5F5E5A">«interface»</text>
<text x="1125" y="299" text-anchor="middle" font-size="10.5" font-weight="700" fill="#2C2C2A">CheckpointerProviderInterface</text>
<text x="1125" y="316" text-anchor="middle" font-size="9.5" fill="#888780">core.interface</text>
<rect x="1270" y="258" width="210" height="76" rx="6" fill="#EEEDFE" stroke="#534AB7" stroke-width="1.4"/>
<text x="1375" y="276" text-anchor="middle" font-size="10" font-style="italic" fill="#534AB7">«class» (2 impl)</text>
<text x="1375" y="293" text-anchor="middle" font-size="11" font-weight="700" fill="#26215C">Memory… / Postgres…</text>
<text x="1375" y="308" text-anchor="middle" font-size="10" fill="#26215C">CheckpointerProvider</text>
<text x="1375" y="324" text-anchor="middle" font-size="9.5" fill="#7F77DD">persistence.checkpoint</text>
<line x1="1270" y1="296" x2="1232" y2="296" stroke="#444441" stroke-width="1.3" stroke-dasharray="6 4" marker-end="url(#tri)"/>

<!-- r4 -->
<rect x="1020" y="356" width="210" height="64" rx="6" fill="#F1EFE8" stroke="#5F5E5A" stroke-width="1.4"/>
<text x="1125" y="374" text-anchor="middle" font-size="10" font-style="italic" fill="#5F5E5A">«interface»</text>
<text x="1125" y="392" text-anchor="middle" font-size="12" font-weight="700" fill="#2C2C2A">ToolInterface</text>
<text x="1125" y="408" text-anchor="middle" font-size="9.5" fill="#888780">core.interface</text>
<rect x="1270" y="356" width="210" height="64" rx="6" fill="#FAECE7" stroke="#993C1D" stroke-width="1.4"/>
<text x="1375" y="374" text-anchor="middle" font-size="10" font-style="italic" fill="#993C1D">«user»</text>
<text x="1375" y="392" text-anchor="middle" font-size="12" font-weight="700" fill="#4A1B0C">&lt;Mio&gt;Tool</text>
<text x="1375" y="408" text-anchor="middle" font-size="9.5" fill="#D85A30">&lt;project&gt;.tools</text>
<line x1="1270" y1="388" x2="1232" y2="388" stroke="#444441" stroke-width="1.3" stroke-dasharray="6 4" marker-end="url(#tri)"/>

<!-- r5 note: NodeInterface handled in band B -->
<rect x="1020" y="448" width="460" height="64" rx="6" fill="#F7F6F1" stroke="#B8B6AE" stroke-width="1.2" stroke-dasharray="3 4"/>
<text x="1250" y="472" text-anchor="middle" font-size="10.5" fill="#8C8A82">NodeInterface ha una gerarchia (L0–L3): vedi la banda sotto.</text>
<text x="1250" y="490" text-anchor="middle" font-size="10" font-style="italic" fill="#A6A49C">Senza porta (orchestratori/dati): GraphExecutor, GraphRuntimeActivator, NodeContext, ExecutionData, *DTO.</text>

<!-- ============ BAND B: ABSTRACT HIERARCHIES ============ -->
<text x="42" y="556" font-size="10.5" font-weight="700" fill="#A6A49C">GERARCHIE ASTRATTE — scala dei nodi (L0–L3) + facciata di deploy</text>

<!-- NodeInterface -->
<rect x="330" y="572" width="240" height="58" rx="6" fill="#F1EFE8" stroke="#5F5E5A" stroke-width="1.5"/>
<text x="450" y="590" text-anchor="middle" font-size="10" font-style="italic" fill="#5F5E5A">«interface» · core.interface</text>
<text x="450" y="608" text-anchor="middle" font-size="12.5" font-weight="700" fill="#2C2C2A">NodeInterface</text>
<text x="450" y="623" text-anchor="middle" font-size="10" fill="#2C2C2A">+ invoke(ctx)</text>

<!-- implements arrows (dashed) -->
<line x1="220" y1="664" x2="400" y2="632" stroke="#444441" stroke-width="1.3" stroke-dasharray="6 4" marker-end="url(#tri)"/>
<line x1="560" y1="664" x2="500" y2="632" stroke="#444441" stroke-width="1.3" stroke-dasharray="6 4" marker-end="url(#tri)"/>

<rect x="110" y="664" width="220" height="74" rx="6" fill="#EEEDFE" stroke="#534AB7" stroke-width="1.5"/>
<text x="220" y="682" text-anchor="middle" font-size="10" font-style="italic" fill="#534AB7">«abstract» · core.abstract</text>
<text x="220" y="700" text-anchor="middle" font-size="12.5" font-weight="700" fill="#26215C">AbstractNode</text>
<line x1="118" y1="708" x2="322" y2="708" stroke="#534AB7" stroke-width="1"/>
<text x="124" y="725" font-size="10" fill="#26215C">L0 · # run(ctx) · LOAD_PREVIOUS</text>

<rect x="450" y="664" width="240" height="74" rx="6" fill="#EEEDFE" stroke="#534AB7" stroke-width="1.5"/>
<text x="570" y="682" text-anchor="middle" font-size="10" font-style="italic" fill="#534AB7">«abstract» · core.abstract</text>
<text x="570" y="700" text-anchor="middle" font-size="12.5" font-weight="700" fill="#26215C">AbstractCommonNode</text>
<line x1="458" y1="708" x2="682" y2="708" stroke="#534AB7" stroke-width="1"/>
<text x="464" y="725" font-size="10" fill="#26215C">L1 · ai_invoke · on_result · build_prompt</text>

<!-- extends arrows (solid) -->
<line x1="570" y1="772" x2="570" y2="740" stroke="#444441" stroke-width="1.3" marker-end="url(#tri)"/>
<line x1="220" y1="772" x2="220" y2="740" stroke="#444441" stroke-width="1.3" marker-end="url(#tri)"/>
<line x1="570" y1="884" x2="570" y2="852" stroke="#444441" stroke-width="1.3" marker-end="url(#tri)"/>

<rect x="450" y="772" width="240" height="74" rx="6" fill="#EEEDFE" stroke="#534AB7" stroke-width="1.5"/>
<text x="570" y="790" text-anchor="middle" font-size="10" font-style="italic" fill="#534AB7">«abstract» · core.abstract</text>
<text x="570" y="808" text-anchor="middle" font-size="12.5" font-weight="700" fill="#26215C">AbstractHookedNode</text>
<line x1="458" y1="816" x2="682" y2="816" stroke="#534AB7" stroke-width="1"/>
<text x="464" y="833" font-size="10" fill="#26215C">L2 · before / after / on_error (ctx,…)</text>

<rect x="110" y="772" width="220" height="74" rx="6" fill="#FAECE7" stroke="#993C1D" stroke-width="1.5"/>
<text x="220" y="790" text-anchor="middle" font-size="10" font-style="italic" fill="#993C1D">«user» · &lt;project&gt;.agents</text>
<text x="220" y="808" text-anchor="middle" font-size="12.5" font-weight="700" fill="#4A1B0C">&lt;Mio&gt;Node</text>
<line x1="118" y1="816" x2="322" y2="816" stroke="#993C1D" stroke-width="1"/>
<text x="124" y="833" font-size="10" fill="#4A1B0C">estende L0 · # run(ctx)</text>

<rect x="450" y="884" width="240" height="74" rx="6" fill="#FAECE7" stroke="#993C1D" stroke-width="1.5"/>
<text x="570" y="902" text-anchor="middle" font-size="10" font-style="italic" fill="#993C1D">«user» · &lt;project&gt;.agents</text>
<text x="570" y="920" text-anchor="middle" font-size="12.5" font-weight="700" fill="#4A1B0C">&lt;Mio&gt;Agent</text>
<line x1="458" y1="928" x2="682" y2="928" stroke="#993C1D" stroke-width="1"/>
<text x="464" y="945" font-size="10" fill="#4A1B0C">L2 · estende AbstractHookedNode (hook)</text>

<!-- L3 clarification -->
<rect x="730" y="664" width="288" height="92" rx="6" fill="#FAF1EC" stroke="#993C1D" stroke-width="1.2" stroke-dasharray="5 4"/>
<text x="874" y="684" text-anchor="middle" font-size="10.5" font-weight="700" fill="#4A1B0C">L3 non è una classe a sé</text>
<text x="738" y="704" font-size="9.5" fill="#4A1B0C">= sottoclasse utente di AbstractCommonNode (L1)</text>
<text x="738" y="719" font-size="9.5" fill="#4A1B0C">con override di on_result / build_prompt.</text>
<text x="738" y="734" font-size="9.5" fill="#4A1B0C">L2 (hook) e L3 (override) condividono la base L1.</text>
<text x="738" y="749" font-size="9.5" fill="#4A1B0C">Es. JudgeAgent, ManualWorkerAgent.</text>

<!-- Platform facade -->
<line x1="1180" y1="752" x2="1180" y2="720" stroke="#444441" stroke-width="1.3" marker-end="url(#tri)"/>
<rect x="1030" y="636" width="300" height="84" rx="6" fill="#EEEDFE" stroke="#534AB7" stroke-width="1.5"/>
<text x="1180" y="654" text-anchor="middle" font-size="10" font-style="italic" fill="#534AB7">«abstract · facciata» · core.platform</text>
<text x="1180" y="672" text-anchor="middle" font-size="12.5" font-weight="700" fill="#26215C">AbstractPlatformManager</text>
<line x1="1038" y1="680" x2="1322" y2="680" stroke="#534AB7" stroke-width="1"/>
<text x="1044" y="697" font-size="10" fill="#26215C">+ run()  (template: start → serve → stop)</text>
<text x="1044" y="712" font-size="10" fill="#26215C"># build_factory() · # build_transport()  (astratti)</text>

<rect x="1030" y="752" width="300" height="78" rx="6" fill="#FAECE7" stroke="#993C1D" stroke-width="1.5"/>
<text x="1180" y="770" text-anchor="middle" font-size="10" font-style="italic" fill="#993C1D">«user» · &lt;project&gt; (composition root)</text>
<text x="1180" y="788" text-anchor="middle" font-size="12.5" font-weight="700" fill="#4A1B0C">&lt;Mio&gt;PlatformManager</text>
<line x1="1038" y1="796" x2="1322" y2="796" stroke="#993C1D" stroke-width="1"/>
<text x="1044" y="813" font-size="10" fill="#4A1B0C">build_factory() → YamlGraphProviderFactory</text>
<text x="1044" y="826" font-size="10" fill="#4A1B0C">build_transport() → HttpTransport</text>

<!-- legend -->
<line x1="1030" y1="876" x2="1058" y2="876" stroke="#444441" stroke-width="1.3" stroke-dasharray="6 4" marker-end="url(#tri)"/>
<text x="1066" y="880" font-size="10.5" fill="#5F5E5A">implements (porta)</text>
<line x1="1030" y1="900" x2="1058" y2="900" stroke="#444441" stroke-width="1.3" marker-end="url(#tri)"/>
<text x="1066" y="904" font-size="10.5" fill="#5F5E5A">extends (classe)</text>
<rect x="1030" y="918" width="14" height="13" rx="3" fill="#F1EFE8" stroke="#5F5E5A"/><text x="1050" y="929" font-size="10" fill="#5F5E5A">interface</text>
<rect x="1130" y="918" width="14" height="13" rx="3" fill="#EEEDFE" stroke="#534AB7"/><text x="1150" y="929" font-size="10" fill="#5F5E5A">framework/abstract</text>
<rect x="1280" y="918" width="14" height="13" rx="3" fill="#FAECE7" stroke="#993C1D"/><text x="1300" y="929" font-size="10" fill="#5F5E5A">user</text>
</svg>
